%TF.GenerationSoftware,KiCad,Pcbnew,(6.0.11)*%
%TF.CreationDate,2023-02-17T13:23:48-05:00*%
%TF.ProjectId,mainboard,6d61696e-626f-4617-9264-2e6b69636164,rev?*%
%TF.SameCoordinates,Original*%
%TF.FileFunction,Legend,Top*%
%TF.FilePolarity,Positive*%
%FSLAX46Y46*%
G04 Gerber Fmt 4.6, Leading zero omitted, Abs format (unit mm)*
G04 Created by KiCad (PCBNEW (6.0.11)) date 2023-02-17 13:23:48*
%MOMM*%
%LPD*%
G01*
G04 APERTURE LIST*
%ADD10C,0.150000*%
%ADD11C,0.120000*%
%ADD12C,0.300000*%
G04 APERTURE END LIST*
D10*
X97854285Y-115487380D02*
X98187619Y-116487380D01*
X98520952Y-115487380D01*
X98854285Y-115963571D02*
X99187619Y-115963571D01*
X99330476Y-116487380D02*
X98854285Y-116487380D01*
X98854285Y-115487380D01*
X99330476Y-115487380D01*
X100520952Y-116487380D02*
X100520952Y-115487380D01*
X100759047Y-115487380D01*
X100901904Y-115535000D01*
X100997142Y-115630238D01*
X101044761Y-115725476D01*
X101092380Y-115915952D01*
X101092380Y-116058809D01*
X101044761Y-116249285D01*
X100997142Y-116344523D01*
X100901904Y-116439761D01*
X100759047Y-116487380D01*
X100520952Y-116487380D01*
X101901904Y-116439761D02*
X101806666Y-116487380D01*
X101616190Y-116487380D01*
X101520952Y-116439761D01*
X101473333Y-116344523D01*
X101473333Y-115963571D01*
X101520952Y-115868333D01*
X101616190Y-115820714D01*
X101806666Y-115820714D01*
X101901904Y-115868333D01*
X101949523Y-115963571D01*
X101949523Y-116058809D01*
X101473333Y-116154047D01*
X102282857Y-115820714D02*
X102520952Y-116487380D01*
X102759047Y-115820714D01*
X103140000Y-116487380D02*
X103140000Y-115820714D01*
X103140000Y-115487380D02*
X103092380Y-115535000D01*
X103140000Y-115582619D01*
X103187619Y-115535000D01*
X103140000Y-115487380D01*
X103140000Y-115582619D01*
X104044761Y-116439761D02*
X103949523Y-116487380D01*
X103759047Y-116487380D01*
X103663809Y-116439761D01*
X103616190Y-116392142D01*
X103568571Y-116296904D01*
X103568571Y-116011190D01*
X103616190Y-115915952D01*
X103663809Y-115868333D01*
X103759047Y-115820714D01*
X103949523Y-115820714D01*
X104044761Y-115868333D01*
X104854285Y-116439761D02*
X104759047Y-116487380D01*
X104568571Y-116487380D01*
X104473333Y-116439761D01*
X104425714Y-116344523D01*
X104425714Y-115963571D01*
X104473333Y-115868333D01*
X104568571Y-115820714D01*
X104759047Y-115820714D01*
X104854285Y-115868333D01*
X104901904Y-115963571D01*
X104901904Y-116058809D01*
X104425714Y-116154047D01*
X105949523Y-115487380D02*
X106282857Y-116487380D01*
X106616190Y-115487380D01*
X106901904Y-115582619D02*
X106949523Y-115535000D01*
X107044761Y-115487380D01*
X107282857Y-115487380D01*
X107378095Y-115535000D01*
X107425714Y-115582619D01*
X107473333Y-115677857D01*
X107473333Y-115773095D01*
X107425714Y-115915952D01*
X106854285Y-116487380D01*
X107473333Y-116487380D01*
X107901904Y-116392142D02*
X107949523Y-116439761D01*
X107901904Y-116487380D01*
X107854285Y-116439761D01*
X107901904Y-116392142D01*
X107901904Y-116487380D01*
X108568571Y-115487380D02*
X108663809Y-115487380D01*
X108759047Y-115535000D01*
X108806666Y-115582619D01*
X108854285Y-115677857D01*
X108901904Y-115868333D01*
X108901904Y-116106428D01*
X108854285Y-116296904D01*
X108806666Y-116392142D01*
X108759047Y-116439761D01*
X108663809Y-116487380D01*
X108568571Y-116487380D01*
X108473333Y-116439761D01*
X108425714Y-116392142D01*
X108378095Y-116296904D01*
X108330476Y-116106428D01*
X108330476Y-115868333D01*
X108378095Y-115677857D01*
X108425714Y-115582619D01*
X108473333Y-115535000D01*
X108568571Y-115487380D01*
X109330476Y-116392142D02*
X109378095Y-116439761D01*
X109330476Y-116487380D01*
X109282857Y-116439761D01*
X109330476Y-116392142D01*
X109330476Y-116487380D01*
X110330476Y-116487380D02*
X109759047Y-116487380D01*
X110044761Y-116487380D02*
X110044761Y-115487380D01*
X109949523Y-115630238D01*
X109854285Y-115725476D01*
X109759047Y-115773095D01*
X98354285Y-117097380D02*
X99020952Y-117097380D01*
X98354285Y-118097380D01*
X99020952Y-118097380D01*
X99401904Y-118002142D02*
X99449523Y-118049761D01*
X99401904Y-118097380D01*
X99354285Y-118049761D01*
X99401904Y-118002142D01*
X99401904Y-118097380D01*
X100640000Y-118097380D02*
X100640000Y-117097380D01*
X101211428Y-118097380D02*
X100782857Y-117525952D01*
X101211428Y-117097380D02*
X100640000Y-117668809D01*
X101640000Y-118097380D02*
X101640000Y-117430714D01*
X101640000Y-117621190D02*
X101687619Y-117525952D01*
X101735238Y-117478333D01*
X101830476Y-117430714D01*
X101925714Y-117430714D01*
X102687619Y-118097380D02*
X102687619Y-117573571D01*
X102640000Y-117478333D01*
X102544761Y-117430714D01*
X102354285Y-117430714D01*
X102259047Y-117478333D01*
X102687619Y-118049761D02*
X102592380Y-118097380D01*
X102354285Y-118097380D01*
X102259047Y-118049761D01*
X102211428Y-117954523D01*
X102211428Y-117859285D01*
X102259047Y-117764047D01*
X102354285Y-117716428D01*
X102592380Y-117716428D01*
X102687619Y-117668809D01*
X103163809Y-117430714D02*
X103163809Y-118097380D01*
X103163809Y-117525952D02*
X103211428Y-117478333D01*
X103306666Y-117430714D01*
X103449523Y-117430714D01*
X103544761Y-117478333D01*
X103592380Y-117573571D01*
X103592380Y-118097380D01*
X103973333Y-117430714D02*
X104497142Y-117430714D01*
X103973333Y-118097380D01*
X104497142Y-118097380D01*
X106354285Y-117192619D02*
X106401904Y-117145000D01*
X106497142Y-117097380D01*
X106735238Y-117097380D01*
X106830476Y-117145000D01*
X106878095Y-117192619D01*
X106925714Y-117287857D01*
X106925714Y-117383095D01*
X106878095Y-117525952D01*
X106306666Y-118097380D01*
X106925714Y-118097380D01*
X108068571Y-117049761D02*
X107211428Y-118335476D01*
X108354285Y-117192619D02*
X108401904Y-117145000D01*
X108497142Y-117097380D01*
X108735238Y-117097380D01*
X108830476Y-117145000D01*
X108878095Y-117192619D01*
X108925714Y-117287857D01*
X108925714Y-117383095D01*
X108878095Y-117525952D01*
X108306666Y-118097380D01*
X108925714Y-118097380D01*
X109259047Y-117097380D02*
X109878095Y-117097380D01*
X109544761Y-117478333D01*
X109687619Y-117478333D01*
X109782857Y-117525952D01*
X109830476Y-117573571D01*
X109878095Y-117668809D01*
X109878095Y-117906904D01*
X109830476Y-118002142D01*
X109782857Y-118049761D01*
X109687619Y-118097380D01*
X109401904Y-118097380D01*
X109306666Y-118049761D01*
X109259047Y-118002142D01*
%TO.C,A1*%
X123615714Y-106846666D02*
X124091904Y-106846666D01*
X123520476Y-107132380D02*
X123853809Y-106132380D01*
X124187142Y-107132380D01*
X125044285Y-107132380D02*
X124472857Y-107132380D01*
X124758571Y-107132380D02*
X124758571Y-106132380D01*
X124663333Y-106275238D01*
X124568095Y-106370476D01*
X124472857Y-106418095D01*
X123068095Y-146772380D02*
X123068095Y-147581904D01*
X123115714Y-147677142D01*
X123163333Y-147724761D01*
X123258571Y-147772380D01*
X123449047Y-147772380D01*
X123544285Y-147724761D01*
X123591904Y-147677142D01*
X123639523Y-147581904D01*
X123639523Y-146772380D01*
X124068095Y-147724761D02*
X124210952Y-147772380D01*
X124449047Y-147772380D01*
X124544285Y-147724761D01*
X124591904Y-147677142D01*
X124639523Y-147581904D01*
X124639523Y-147486666D01*
X124591904Y-147391428D01*
X124544285Y-147343809D01*
X124449047Y-147296190D01*
X124258571Y-147248571D01*
X124163333Y-147200952D01*
X124115714Y-147153333D01*
X124068095Y-147058095D01*
X124068095Y-146962857D01*
X124115714Y-146867619D01*
X124163333Y-146820000D01*
X124258571Y-146772380D01*
X124496666Y-146772380D01*
X124639523Y-146820000D01*
X125401428Y-147248571D02*
X125544285Y-147296190D01*
X125591904Y-147343809D01*
X125639523Y-147439047D01*
X125639523Y-147581904D01*
X125591904Y-147677142D01*
X125544285Y-147724761D01*
X125449047Y-147772380D01*
X125068095Y-147772380D01*
X125068095Y-146772380D01*
X125401428Y-146772380D01*
X125496666Y-146820000D01*
X125544285Y-146867619D01*
X125591904Y-146962857D01*
X125591904Y-147058095D01*
X125544285Y-147153333D01*
X125496666Y-147200952D01*
X125401428Y-147248571D01*
X125068095Y-147248571D01*
%TO.C,R1*%
X111912380Y-129706666D02*
X111436190Y-130040000D01*
X111912380Y-130278095D02*
X110912380Y-130278095D01*
X110912380Y-129897142D01*
X110960000Y-129801904D01*
X111007619Y-129754285D01*
X111102857Y-129706666D01*
X111245714Y-129706666D01*
X111340952Y-129754285D01*
X111388571Y-129801904D01*
X111436190Y-129897142D01*
X111436190Y-130278095D01*
X111912380Y-128754285D02*
X111912380Y-129325714D01*
X111912380Y-129040000D02*
X110912380Y-129040000D01*
X111055238Y-129135238D01*
X111150476Y-129230476D01*
X111198095Y-129325714D01*
%TO.C,Q1*%
X108187261Y-136977619D02*
X108092023Y-136930000D01*
X107996785Y-136834761D01*
X107853928Y-136691904D01*
X107758690Y-136644285D01*
X107663452Y-136644285D01*
X107711071Y-136882380D02*
X107615833Y-136834761D01*
X107520595Y-136739523D01*
X107472976Y-136549047D01*
X107472976Y-136215714D01*
X107520595Y-136025238D01*
X107615833Y-135930000D01*
X107711071Y-135882380D01*
X107901547Y-135882380D01*
X107996785Y-135930000D01*
X108092023Y-136025238D01*
X108139642Y-136215714D01*
X108139642Y-136549047D01*
X108092023Y-136739523D01*
X107996785Y-136834761D01*
X107901547Y-136882380D01*
X107711071Y-136882380D01*
X109092023Y-136882380D02*
X108520595Y-136882380D01*
X108806309Y-136882380D02*
X108806309Y-135882380D01*
X108711071Y-136025238D01*
X108615833Y-136120476D01*
X108520595Y-136168095D01*
%TO.C,U1*%
X138808095Y-128782380D02*
X138808095Y-129591904D01*
X138855714Y-129687142D01*
X138903333Y-129734761D01*
X138998571Y-129782380D01*
X139189047Y-129782380D01*
X139284285Y-129734761D01*
X139331904Y-129687142D01*
X139379523Y-129591904D01*
X139379523Y-128782380D01*
X140379523Y-129782380D02*
X139808095Y-129782380D01*
X140093809Y-129782380D02*
X140093809Y-128782380D01*
X139998571Y-128925238D01*
X139903333Y-129020476D01*
X139808095Y-129068095D01*
%TO.C,M1*%
X108580467Y-150273630D02*
X108580467Y-149273630D01*
X108913800Y-149987916D01*
X109247133Y-149273630D01*
X109247133Y-150273630D01*
X110247133Y-150273630D02*
X109675705Y-150273630D01*
X109961419Y-150273630D02*
X109961419Y-149273630D01*
X109866181Y-149416488D01*
X109770943Y-149511726D01*
X109675705Y-149559345D01*
D11*
%TO.C,A1*%
X115310000Y-113030000D02*
X115310000Y-151260000D01*
X117980000Y-113030000D02*
X115310000Y-113030000D01*
X120390000Y-143380000D02*
X128270000Y-143380000D01*
X133350000Y-151260000D02*
X133350000Y-107820000D01*
X117980000Y-110490000D02*
X115310000Y-110490000D01*
X130680000Y-110490000D02*
X133350000Y-110490000D01*
X128270000Y-153800000D02*
X120390000Y-153800000D01*
X130680000Y-110490000D02*
X130680000Y-148590000D01*
X115310000Y-107820000D02*
X115310000Y-110490000D01*
X115310000Y-151260000D02*
X120390000Y-151260000D01*
X120390000Y-153800000D02*
X120390000Y-143380000D01*
X117980000Y-113030000D02*
X117980000Y-110490000D01*
X130680000Y-148590000D02*
X133350000Y-148590000D01*
X133350000Y-151260000D02*
X128270000Y-151260000D01*
X133350000Y-107820000D02*
X115310000Y-107820000D01*
X117980000Y-113030000D02*
X117980000Y-148590000D01*
X117980000Y-148590000D02*
X115310000Y-148590000D01*
X128270000Y-143380000D02*
X128270000Y-153800000D01*
%TO.C,R1*%
X110460000Y-132810000D02*
X110130000Y-132810000D01*
X107720000Y-132810000D02*
X108050000Y-132810000D01*
X107720000Y-126270000D02*
X107720000Y-132810000D01*
X110130000Y-126270000D02*
X110460000Y-126270000D01*
X108050000Y-126270000D02*
X107720000Y-126270000D01*
X110460000Y-126270000D02*
X110460000Y-132810000D01*
D10*
%TO.C,Q1*%
X107250285Y-140170655D02*
X107215546Y-139936466D01*
X107250285Y-139229345D02*
X107307810Y-138999688D01*
X107488794Y-138562755D02*
X107610509Y-138359687D01*
X107751541Y-141230474D02*
X107610509Y-141040313D01*
X107488794Y-140837245D02*
X107387570Y-140623224D01*
X107910534Y-141405895D02*
X107751541Y-141230474D01*
X107387570Y-140623224D02*
X107307810Y-140400312D01*
X107910534Y-137994105D02*
X108085955Y-137835112D01*
X107610509Y-141040313D02*
X107488794Y-140837245D01*
X108276116Y-141705920D02*
X108085955Y-141564888D01*
X108085955Y-137835112D02*
X108276116Y-137694080D01*
X108085955Y-141564888D02*
X107910534Y-141405895D01*
X107203929Y-139700000D02*
X107215546Y-139463534D01*
X107215546Y-139936466D02*
X107203929Y-139700000D01*
X107610509Y-138359687D02*
X107751541Y-138169526D01*
X107751541Y-138169526D02*
X107910534Y-137994105D01*
D12*
X110932500Y-141509375D02*
X110932500Y-137890625D01*
D10*
X107307810Y-140400312D02*
X107250285Y-140170655D01*
X107387570Y-138776776D02*
X107488794Y-138562755D01*
X107307810Y-138999688D02*
X107387570Y-138776776D01*
X107215546Y-139463534D02*
X107250285Y-139229345D01*
D11*
%TO.C,U1*%
X139262470Y-124400000D02*
X138460000Y-124400000D01*
X140680000Y-126875000D02*
X140133471Y-126875000D01*
X140680000Y-124400000D02*
X139877530Y-124400000D01*
X140680000Y-128395000D02*
X139570000Y-128395000D01*
X139006529Y-126875000D02*
X138460000Y-126875000D01*
X140680000Y-126875000D02*
X140680000Y-124400000D01*
X138460000Y-126875000D02*
X138460000Y-124400000D01*
X140680000Y-127635000D02*
X140680000Y-128395000D01*
%TO.C,M1*%
X110499991Y-148126250D02*
X110499991Y-148886250D01*
X109082461Y-146161250D02*
X108279991Y-146161250D01*
X110499991Y-147366250D02*
X110499991Y-146161250D01*
X110499991Y-147366250D02*
X109953462Y-147366250D01*
X110499991Y-148886250D02*
X109389991Y-148886250D01*
X108279991Y-147366250D02*
X108279991Y-146161250D01*
X108826520Y-147366250D02*
X108279991Y-147366250D01*
X110499991Y-146161250D02*
X109697521Y-146161250D01*
%TD*%
M02*
