M48
; DRILL file {KiCad (6.0.11)} date Fri Feb 17 13:23:51 2023
; FORMAT={-:-/ absolute / inch / decimal}
; #@! TF.CreationDate,2023-02-17T13:23:51-05:00
; #@! TF.GenerationSoftware,Kicad,Pcbnew,(6.0.11)
; #@! TF.FileFunction,Plated,1,2,PTH
FMAT,2
INCH
; #@! TA.AperFunction,Plated,PTH,ComponentDrill
T1C0.0256
; #@! TA.AperFunction,Plated,PTH,ComponentDrill
T2C0.0315
; #@! TA.AperFunction,Plated,PTH,ComponentDrill
T3C0.0354
; #@! TA.AperFunction,Plated,PTH,ComponentDrill
T4C0.0394
%
G90
G05
T1
X4.3067Y-5.7817
X4.3067Y-5.8317
X5.4949Y-4.925
X5.4949Y-4.975
X5.4949Y-5.025
T2
X4.2949Y-4.95
X4.2949Y-5.25
T3
X4.2649Y-5.5
X4.3149Y-5.449
X4.3149Y-5.55
T4
X4.5949Y-4.4
X4.5949Y-4.5
X4.5949Y-4.6
X4.5949Y-4.7
X4.5949Y-4.8
X4.5949Y-4.9
X4.5949Y-5.0
X4.5949Y-5.1
X4.5949Y-5.2
X4.5949Y-5.3
X4.5949Y-5.4
X4.5949Y-5.5
X4.5949Y-5.6
X4.5949Y-5.7
X4.5949Y-5.8
X5.1949Y-4.4
X5.1949Y-4.5
X5.1949Y-4.6
X5.1949Y-4.7
X5.1949Y-4.8
X5.1949Y-4.9
X5.1949Y-5.0
X5.1949Y-5.1
X5.1949Y-5.2
X5.1949Y-5.3
X5.1949Y-5.4
X5.1949Y-5.5
X5.1949Y-5.6
X5.1949Y-5.7
X5.1949Y-5.8
T0
M30
